<svg width="159" height="31" viewBox="0 0 159 31" fill="none" xmlns="http://www.w3.org/2000/svg">
<path d="M9.224 24V14.848L10.408 17.984L0.552 1.6H6.056L13.608 14.176H10.44L18.024 1.6H23.112L13.256 17.984L14.408 14.848V24H9.224ZM31.2148 24.256C29.3801 24.256 27.7481 23.872 26.3188 23.104C24.9108 22.336 23.7908 21.2907 22.9588 19.968C22.1481 18.624 21.7428 17.0987 21.7428 15.392C21.7428 13.664 22.1481 12.1387 22.9588 10.816C23.7908 9.472 24.9108 8.42667 26.3188 7.68C27.7481 6.912 29.3801 6.528 31.2148 6.528C33.0281 6.528 34.6494 6.912 36.0788 7.68C37.5081 8.42667 38.6281 9.46133 39.4388 10.784C40.2494 12.1067 40.6548 13.6427 40.6548 15.392C40.6548 17.0987 40.2494 18.624 39.4388 19.968C38.6281 21.2907 37.5081 22.336 36.0788 23.104C34.6494 23.872 33.0281 24.256 31.2148 24.256ZM31.2148 20.16C32.0468 20.16 32.7934 19.968 33.4548 19.584C34.1161 19.2 34.6388 18.656 35.0228 17.952C35.4068 17.2267 35.5988 16.3733 35.5988 15.392C35.5988 14.3893 35.4068 13.536 35.0228 12.832C34.6388 12.128 34.1161 11.584 33.4548 11.2C32.7934 10.816 32.0468 10.624 31.2148 10.624C30.3828 10.624 29.6361 10.816 28.9748 11.2C28.3134 11.584 27.7801 12.128 27.3748 12.832C26.9908 13.536 26.7988 14.3893 26.7988 15.392C26.7988 16.3733 26.9908 17.2267 27.3748 17.952C27.7801 18.656 28.3134 19.2 28.9748 19.584C29.6361 19.968 30.3828 20.16 31.2148 20.16ZM51.2555 24.256C49.8262 24.256 48.5462 23.9787 47.4155 23.424C46.3062 22.8693 45.4422 22.0267 44.8235 20.896C44.2048 19.744 43.8955 18.2827 43.8955 16.512V6.784H48.8875V15.776C48.8875 17.2053 49.1862 18.2613 49.7835 18.944C50.4022 19.6053 51.2662 19.936 52.3755 19.936C53.1435 19.936 53.8262 19.776 54.4235 19.456C55.0208 19.1147 55.4902 18.6027 55.8315 17.92C56.1728 17.216 56.3435 16.3413 56.3435 15.296V6.784H61.3355V24H56.5995V19.264L57.4635 20.64C56.8875 21.8347 56.0342 22.7413 54.9035 23.36C53.7942 23.9573 52.5782 24.256 51.2555 24.256ZM65.9603 24V6.784H70.7283V11.648L70.0563 10.24C70.5683 9.024 71.3896 8.10667 72.5203 7.488C73.6509 6.848 75.0269 6.528 76.6483 6.528V11.136C76.4349 11.1147 76.2429 11.104 76.0723 11.104C75.9016 11.0827 75.7203 11.072 75.5283 11.072C74.1629 11.072 73.0536 11.4667 72.2003 12.256C71.3683 13.024 70.9523 14.2293 70.9523 15.872V24H65.9603Z" fill="#2A90D9"/>
<path d="M81.6295 24.256C80.7762 24.256 80.0402 23.968 79.4215 23.392C78.8242 22.7947 78.5255 22.0373 78.5255 21.12C78.5255 20.2027 78.8242 19.4667 79.4215 18.912C80.0402 18.336 80.7762 18.048 81.6295 18.048C82.5042 18.048 83.2402 18.336 83.8375 18.912C84.4348 19.4667 84.7335 20.2027 84.7335 21.12C84.7335 22.0373 84.4348 22.7947 83.8375 23.392C83.2402 23.968 82.5042 24.256 81.6295 24.256ZM88.1165 24V0.255999H93.1085V24H88.1165ZM105.934 24.256C104.099 24.256 102.467 23.872 101.038 23.104C99.6295 22.336 98.5095 21.2907 97.6775 19.968C96.8668 18.624 96.4615 17.0987 96.4615 15.392C96.4615 13.664 96.8668 12.1387 97.6775 10.816C98.5095 9.472 99.6295 8.42667 101.038 7.68C102.467 6.912 104.099 6.528 105.934 6.528C107.747 6.528 109.368 6.912 110.798 7.68C112.227 8.42667 113.347 9.46133 114.158 10.784C114.968 12.1067 115.374 13.6427 115.374 15.392C115.374 17.0987 114.968 18.624 114.158 19.968C113.347 21.2907 112.227 22.336 110.798 23.104C109.368 23.872 107.747 24.256 105.934 24.256ZM105.934 20.16C106.766 20.16 107.512 19.968 108.174 19.584C108.835 19.2 109.358 18.656 109.742 17.952C110.126 17.2267 110.318 16.3733 110.318 15.392C110.318 14.3893 110.126 13.536 109.742 12.832C109.358 12.128 108.835 11.584 108.174 11.2C107.512 10.816 106.766 10.624 105.934 10.624C105.102 10.624 104.355 10.816 103.694 11.2C103.032 11.584 102.499 12.128 102.094 12.832C101.71 13.536 101.518 14.3893 101.518 15.392C101.518 16.3733 101.71 17.2267 102.094 17.952C102.499 18.656 103.032 19.2 103.694 19.584C104.355 19.968 105.102 20.16 105.934 20.16ZM126.806 30.464C125.185 30.464 123.617 30.2613 122.102 29.856C120.609 29.472 119.361 28.8853 118.358 28.096L120.342 24.512C121.068 25.1093 121.985 25.5787 123.094 25.92C124.225 26.2827 125.334 26.464 126.422 26.464C128.193 26.464 129.473 26.0693 130.262 25.28C131.073 24.4907 131.478 23.3173 131.478 21.76V19.168L131.798 14.848L131.734 10.496V6.784H136.47V21.12C136.47 24.32 135.638 26.6773 133.974 28.192C132.31 29.7067 129.921 30.464 126.806 30.464ZM126.038 23.168C124.438 23.168 122.988 22.8267 121.686 22.144C120.406 21.44 119.372 20.4693 118.582 19.232C117.814 17.9733 117.43 16.512 117.43 14.848C117.43 13.1627 117.814 11.7013 118.582 10.464C119.372 9.20533 120.406 8.23467 121.686 7.552C122.988 6.86933 124.438 6.528 126.038 6.528C127.489 6.528 128.769 6.82667 129.878 7.424C130.988 8 131.852 8.90667 132.47 10.144C133.089 11.36 133.398 12.928 133.398 14.848C133.398 16.7467 133.089 18.3147 132.47 19.552C131.852 20.768 130.988 21.6747 129.878 22.272C128.769 22.8693 127.489 23.168 126.038 23.168ZM127.03 19.072C127.905 19.072 128.684 18.9013 129.366 18.56C130.049 18.1973 130.582 17.696 130.966 17.056C131.35 16.416 131.542 15.68 131.542 14.848C131.542 13.9947 131.35 13.2587 130.966 12.64C130.582 12 130.049 11.5093 129.366 11.168C128.684 10.8053 127.905 10.624 127.03 10.624C126.156 10.624 125.377 10.8053 124.694 11.168C124.012 11.5093 123.468 12 123.062 12.64C122.678 13.2587 122.486 13.9947 122.486 14.848C122.486 15.68 122.678 16.416 123.062 17.056C123.468 17.696 124.012 18.1973 124.694 18.56C125.377 18.9013 126.156 19.072 127.03 19.072ZM149.309 24.256C147.474 24.256 145.842 23.872 144.413 23.104C143.005 22.336 141.885 21.2907 141.053 19.968C140.242 18.624 139.837 17.0987 139.837 15.392C139.837 13.664 140.242 12.1387 141.053 10.816C141.885 9.472 143.005 8.42667 144.413 7.68C145.842 6.912 147.474 6.528 149.309 6.528C151.122 6.528 152.743 6.912 154.173 7.68C155.602 8.42667 156.722 9.46133 157.533 10.784C158.343 12.1067 158.749 13.6427 158.749 15.392C158.749 17.0987 158.343 18.624 157.533 19.968C156.722 21.2907 155.602 22.336 154.173 23.104C152.743 23.872 151.122 24.256 149.309 24.256ZM149.309 20.16C150.141 20.16 150.887 19.968 151.549 19.584C152.21 19.2 152.733 18.656 153.117 17.952C153.501 17.2267 153.693 16.3733 153.693 15.392C153.693 14.3893 153.501 13.536 153.117 12.832C152.733 12.128 152.21 11.584 151.549 11.2C150.887 10.816 150.141 10.624 149.309 10.624C148.477 10.624 147.73 10.816 147.069 11.2C146.407 11.584 145.874 12.128 145.469 12.832C145.085 13.536 144.893 14.3893 144.893 15.392C144.893 16.3733 145.085 17.2267 145.469 17.952C145.874 18.656 146.407 19.2 147.069 19.584C147.73 19.968 148.477 20.16 149.309 20.16Z" fill="#EE685F"/>
</svg>
